<svg width="16" height="18" viewBox="0 0 16 18" fill="none" xmlns="http://www.w3.org/2000/svg">
<path d="M7.60889 8.87989C9.95635 8.87989 11.8589 6.97734 11.8589 4.62986C11.8589 2.28238 9.95635 0.379822 7.60889 0.379822C5.26143 0.379822 3.35889 2.28238 3.35889 4.62986C3.35889 6.97734 5.26143 8.87989 7.60889 8.87989ZM10.5839 9.9424H10.0294C9.29228 10.2811 8.47217 10.4737 7.60889 10.4737C6.74561 10.4737 5.92881 10.2811 5.18838 9.9424H4.63389C2.17021 9.9424 0.171387 11.9412 0.171387 14.4049V15.7862C0.171387 16.6661 0.885254 17.38 1.76514 17.38H13.4526C14.3325 17.38 15.0464 16.6661 15.0464 15.7862V14.4049C15.0464 11.9412 13.0476 9.9424 10.5839 9.9424Z" fill="#999999"/>
</svg>
