<svg width="16" height="18" viewBox="0 0 16 18" fill="none" xmlns="http://www.w3.org/2000/svg">
<path d="M13.8834 2.46511H12.2897V0.738529C12.2897 0.519386 12.1104 0.340088 11.8912 0.340088H10.5631C10.344 0.340088 10.1647 0.519386 10.1647 0.738529V2.46511H5.91467V0.738529C5.91467 0.519386 5.73538 0.340088 5.51624 0.340088H4.18811C3.96897 0.340088 3.78967 0.519386 3.78967 0.738529V2.46511H2.19592C1.31604 2.46511 0.602173 3.17898 0.602173 4.05887V15.7465C0.602173 16.6264 1.31604 17.3402 2.19592 17.3402H13.8834C14.7633 17.3402 15.4772 16.6264 15.4772 15.7465V4.05887C15.4772 3.17898 14.7633 2.46511 13.8834 2.46511ZM13.6842 15.7465H2.39514C2.28557 15.7465 2.19592 15.6568 2.19592 15.5472V5.65263H13.8834V15.5472C13.8834 15.6568 13.7938 15.7465 13.6842 15.7465Z" fill="#999999"/>
</svg>
