<svg width="78" height="28" viewBox="0 0 78 28" fill="none" xmlns="http://www.w3.org/2000/svg">
<path d="M22.7947 28L5.86899 20.7162V27.3974H0V18.4978C0 16.3581 0.532751 14.6201 1.60699 13.2839C2.83843 11.7555 4.64628 10.9869 7.0393 10.9869H14.3319C15.0044 10.9869 15.5371 10.7424 15.9214 10.2533C16.262 9.81662 16.4367 9.27514 16.4367 8.63758C16.4367 8.00003 16.262 7.42361 15.9214 6.96073C15.5371 6.44545 15.0131 6.19217 14.3319 6.19217H0V0.51532H15.3188C17.607 0.51532 19.4148 1.36248 20.7511 3.04807C21.965 4.57645 22.5764 6.44545 22.5764 8.64632C22.5764 10.8472 21.9738 12.7337 20.7685 14.2533C19.4323 15.9389 17.6157 16.786 15.3188 16.786H11.6157L22.7947 21.6419V28V28Z" fill="white"/>
<path d="M46.8821 6.18343H32.5677C31.9214 6.18343 31.4061 6.42797 31.0306 6.91706C30.6551 7.40614 30.4629 7.97382 30.4629 8.63758C30.4629 9.30133 30.6463 9.83408 31.0044 10.297C31.3712 10.7598 31.8865 10.9869 32.559 10.9869H40.9869C43.2577 10.9869 45.0568 11.8428 46.3756 13.5459C47.5808 15.0917 48.1834 16.9782 48.1834 19.1965C48.1834 21.4149 47.5895 23.3101 46.4018 24.8472C45.083 26.5502 43.2751 27.4061 40.9869 27.4061H25.6507V21.6943H40.0175C40.6289 21.6943 41.1179 21.4323 41.5022 20.8996C41.8428 20.428 42.0175 19.8515 42.0175 19.1791C42.0175 18.5066 41.8428 17.9738 41.5022 17.5022C41.1616 17.0306 40.6638 16.7948 40.0175 16.7948H31.5721C29.2839 16.7948 27.476 15.9476 26.1398 14.262C24.9258 12.7336 24.3145 10.8647 24.3145 8.65505C24.3145 6.44544 24.9171 4.59391 26.1223 3.07426C27.4673 1.37121 29.2839 0.524048 31.5721 0.524048H46.8734V6.18343H46.8821Z" fill="white"/>
<path d="M77.0481 21.9825C77.0481 23.703 76.3494 25.1092 74.9433 26.2271C73.6245 27.2751 72.0438 27.7904 70.2097 27.7904C68.6115 27.7904 67.1879 27.3712 65.9302 26.5415C64.5154 25.607 63.5197 24.2533 62.9346 22.4978C62.8123 22.1572 62.2796 20.2445 61.3276 16.7685C60.4455 13.5196 59.6857 11.0568 59.0656 9.37117C58.1835 6.95196 57.4499 5.78166 56.8822 5.86026C56.4979 5.95633 56.2359 6.1048 56.0962 6.31441C55.9564 6.52401 55.8866 6.82096 55.8866 7.20524V27.3974H49.9215V5.82532C49.9215 3.86026 50.6639 2.35808 52.1398 1.32751C53.4237 0.445415 55.0656 0 57.0569 0C59.7119 0 61.8342 1.34498 63.4237 4.04367C64.4805 5.82532 65.4848 8.72488 66.4368 12.7249C67.4935 17.1092 68.2708 19.8515 68.7599 20.9345C68.8909 21.214 69.0743 21.4236 69.2927 21.572C69.5197 21.7205 69.7468 21.7904 69.9826 21.7904C70.2708 21.7904 70.5241 21.6768 70.7337 21.441C70.9433 21.214 71.0481 20.8908 71.0481 20.4803V0.296943H77.0132V21.9825H77.0481Z" fill="white"/>
</svg>
